<svg xmlns="http://www.w3.org/2000/svg" width="479" height="222" viewBox="0 0 479 222" version="1.1"><path d="M 0 76.427 L 0 152.853 1.339 153.177 L 2.678 153.500 26.589 181.108 L 50.500 208.717 56 215.341 L 61.500 221.966 270.086 221.983 L 478.673 222 479.336 169.335 L 480 116.671 479.769 58.085 L 479.539 -0.500 479.019 34.777 L 478.500 70.053 447.023 35.027 L 415.546 0 207.773 0 L 0 0 0 76.427 M 0.476 77 L 0.476 153.500 0.750 115.250 L 1.024 77 0.750 38.750 L 0.476 0.500 0.476 77 M 4 76.127 L 4 148.253 206.250 147.515 L 408.500 146.778 409.250 146.330 L 410 145.882 410 74.941 L 410 4 207 4 L 4 4 4 76.127 M 415 77.998 L 415 147 416.025 147 L 417.050 147 418.011 149.528 L 418.972 152.056 446.236 181.720 L 473.500 211.384 473.785 144.442 L 474.071 77.500 473.490 74.250 L 472.909 71 471.455 71 L 470 71 470 69.673 L 470 68.347 442.500 38.672 L 415 8.997 415 77.998 M 18.231 163.750 L 27.635 174.500 45.895 195.500 L 64.156 216.500 66.977 217.252 L 69.798 218.005 271 217.752 L 472.202 217.500 442.851 185.302 L 413.500 153.104 211.164 153.052 L 8.828 153 18.231 163.750 M 119.500 161.070 L 112.500 162.030 107 163.433 L 101.500 164.836 95.762 166.985 L 90.025 169.134 85.284 172.317 L 80.544 175.500 78.231 179.500 L 75.918 183.500 76.326 187.659 L 76.734 191.817 79.008 195.011 L 81.283 198.206 86.391 201.430 L 91.500 204.654 96 206.422 L 100.500 208.190 109 210.127 L 117.500 212.063 131 212.631 L 144.500 213.198 154.741 211.627 L 164.983 210.055 172.569 207.509 L 180.156 204.962 185.437 201.584 L 190.717 198.206 193.109 194.853 L 195.500 191.500 195.500 186.343 L 195.500 181.186 192.434 177.343 L 189.369 173.500 180.818 169.199 L 172.267 164.899 162.883 162.929 L 153.500 160.959 140 160.534 L 126.500 160.110 119.500 161.070 M 318.093 161.574 L 308.686 163.097 301.699 165.538 L 294.712 167.979 290.493 170.451 L 286.274 172.924 283.186 176.440 L 280.099 179.957 279.450 183.413 L 278.802 186.870 279.957 190.369 L 281.112 193.868 285.201 197.563 L 289.290 201.257 295.788 204.203 L 302.286 207.150 310.893 209.085 L 319.500 211.020 331.084 211.654 L 342.669 212.289 352.391 211.065 L 362.114 209.841 369.145 207.892 L 376.177 205.944 381.125 203.437 L 386.072 200.930 390.029 197.355 L 393.986 193.780 395.151 189.890 L 396.317 186 395.151 182.110 L 393.986 178.220 389.848 174.481 L 385.710 170.743 379.105 167.745 L 372.500 164.747 363.500 162.853 L 354.500 160.959 341 160.506 L 327.500 160.052 318.093 161.574" stroke="none" fill="#040404" fill-rule="evenodd"/><path d="M 4 76.127 L 4 148.253 206.250 147.515 L 408.500 146.778 409.250 146.330 L 410 145.882 410 74.941 L 410 4 207 4 L 4 4 4 76.127 M 415 77.998 L 415 147 416.025 147 L 417.050 147 418.011 149.528 L 418.972 152.056 446.236 181.720 L 473.500 211.384 473.785 144.442 L 474.071 77.500 473.490 74.250 L 472.909 71 471.455 71 L 470 71 470 69.673 L 470 68.347 442.500 38.672 L 415 8.997 415 77.998 M 18.231 163.750 L 27.635 174.500 45.895 195.500 L 64.156 216.500 66.977 217.252 L 69.798 218.005 271 217.752 L 472.202 217.500 442.851 185.302 L 413.500 153.104 211.164 153.052 L 8.828 153 18.231 163.750 M 119.500 161.070 L 112.500 162.030 107 163.433 L 101.500 164.836 95.762 166.985 L 90.025 169.134 85.284 172.317 L 80.544 175.500 78.231 179.500 L 75.918 183.500 76.326 187.659 L 76.734 191.817 79.008 195.011 L 81.283 198.206 86.391 201.430 L 91.500 204.654 96 206.422 L 100.500 208.190 109 210.127 L 117.500 212.063 131 212.631 L 144.500 213.198 154.741 211.627 L 164.983 210.055 172.569 207.509 L 180.156 204.962 185.437 201.584 L 190.717 198.206 193.109 194.853 L 195.500 191.500 195.500 186.343 L 195.500 181.186 192.434 177.343 L 189.369 173.500 180.818 169.199 L 172.267 164.899 162.883 162.929 L 153.500 160.959 140 160.534 L 126.500 160.110 119.500 161.070 M 318.093 161.574 L 308.686 163.097 301.699 165.538 L 294.712 167.979 290.493 170.451 L 286.274 172.924 283.186 176.440 L 280.099 179.957 279.450 183.413 L 278.802 186.870 279.957 190.369 L 281.112 193.868 285.201 197.563 L 289.290 201.257 295.788 204.203 L 302.286 207.150 310.893 209.085 L 319.500 211.020 331.084 211.654 L 342.669 212.289 352.391 211.065 L 362.114 209.841 369.145 207.892 L 376.177 205.944 381.125 203.437 L 386.072 200.930 390.029 197.355 L 393.986 193.780 395.151 189.890 L 396.317 186 395.151 182.110 L 393.986 178.220 389.848 174.481 L 385.710 170.743 379.105 167.745 L 372.500 164.747 363.500 162.853 L 354.500 160.959 341 160.506 L 327.500 160.052 318.093 161.574 M 50 209.786 L 50 210.690 52.146 212.595 L 54.291 214.500 53.140 212.306 L 51.989 210.111 50.995 209.497 L 50 208.882 50 209.786" stroke="none" fill="#ec1c24" fill-rule="evenodd"/></svg>